<svg width="16" height="16" viewBox="0 0 16 16" fill="none" xmlns="http://www.w3.org/2000/svg">
<path d="M2.55538 2.66683H5.54867L6.51348 5.07885L4.96356 6.11213C4.7781 6.23577 4.6667 6.44393 4.6667 6.66683C4.66839 6.72925 4.6667 6.6675 4.6667 6.6675L4.6667 6.6682L4.6667 6.66969L4.66672 6.67305L4.66682 6.68128C4.66692 6.68742 4.66709 6.69488 4.66737 6.70362C4.66793 6.7211 4.66895 6.7437 4.67078 6.77107C4.67442 6.8258 4.6813 6.89979 4.69423 6.99028C4.72007 7.17114 4.77021 7.4189 4.86757 7.71098C5.06306 8.29745 5.44718 9.05679 6.19529 9.8049C6.9434 10.553 7.70274 10.9371 8.28921 11.1326C8.58129 11.23 8.82905 11.2801 9.00991 11.306C9.1004 11.3189 9.17439 11.3258 9.22912 11.3294C9.2565 11.3312 9.27909 11.3323 9.29657 11.3328C9.30531 11.3331 9.31277 11.3333 9.31891 11.3334L9.32714 11.3335L9.3305 11.3335L9.332 11.3335L9.33269 11.3335C9.33269 11.3335 9.40712 11.3294 9.33336 11.3335C9.58588 11.3335 9.81672 11.1908 9.92965 10.965L10.3761 10.072L13.3334 10.5649V13.4448C11.926 13.6484 8.12497 13.849 5.1381 10.8621C2.15123 7.87523 2.35184 4.07423 2.55538 2.66683ZM6.04913 6.99089L7.25308 6.18825C7.7777 5.8385 7.98562 5.16908 7.75145 4.58366L6.78664 2.17164C6.58416 1.66543 6.09388 1.3335 5.54867 1.3335H2.52055C1.91487 1.3335 1.34475 1.75427 1.24532 2.41143C1.01912 3.9065 0.711219 8.32083 4.19529 11.8049C7.67936 15.289 12.0937 14.9811 13.5888 14.7549C14.2459 14.6554 14.6667 14.0853 14.6667 13.4796V10.5649C14.6667 9.91313 14.1955 9.35688 13.5526 9.24972L10.5953 8.75685C10.0179 8.66062 9.44531 8.95221 9.18354 9.47575L8.95255 9.93775C8.87994 9.91993 8.79889 9.89706 8.71085 9.86771C8.29732 9.72986 7.72332 9.44732 7.1381 8.86209C6.55288 8.27687 6.27033 7.70287 6.13248 7.28934C6.09524 7.1776 6.06842 7.07713 6.04913 6.99089Z" fill="#62A593"/>
</svg>
