<svg width="14" height="14" viewBox="0 0 14 14" fill="none" xmlns="http://www.w3.org/2000/svg">
<path d="M6.99967 1.66671C4.05416 1.66671 1.66634 4.05452 1.66634 7.00004C1.66634 9.94556 4.05416 12.3334 6.99967 12.3334C9.94519 12.3334 12.333 9.94556 12.333 7.00004C12.333 4.05452 9.94519 1.66671 6.99967 1.66671ZM0.333008 7.00004C0.333008 3.31814 3.31778 0.333374 6.99967 0.333374C10.6816 0.333374 13.6663 3.31814 13.6663 7.00004C13.6663 10.6819 10.6816 13.6667 6.99967 13.6667C3.31778 13.6667 0.333008 10.6819 0.333008 7.00004ZM6.99967 3.00004C7.36786 3.00004 7.66634 3.29852 7.66634 3.66671V6.7239L9.47108 8.52864C9.73143 8.78899 9.73143 9.2111 9.47108 9.47145C9.21073 9.7318 8.78862 9.7318 8.52827 9.47145L6.52827 7.47145C6.40325 7.34642 6.33301 7.17685 6.33301 7.00004V3.66671C6.33301 3.29852 6.63148 3.00004 6.99967 3.00004Z" fill="#727272"/>
</svg>
