<svg width="16" height="16" viewBox="0 0 16 16" fill="none" xmlns="http://www.w3.org/2000/svg">
<path d="M2.66659 4.42217C2.75983 4.38448 2.87192 4.34285 3.00184 4.30086C3.46134 4.15233 4.14193 3.99984 4.99992 3.99984C5.85791 3.99984 6.5385 4.15233 6.998 4.30086C7.12792 4.34285 7.24001 4.38448 7.33325 4.42217V11.6751C6.76577 11.4988 5.97336 11.3332 4.99992 11.3332C4.02648 11.3332 3.23406 11.4988 2.66659 11.6751V4.42217ZM7.99992 3.25669C7.84944 3.18996 7.65094 3.11065 7.40809 3.03215C6.83634 2.84735 6.01693 2.6665 4.99992 2.6665C3.98291 2.6665 3.1635 2.84735 2.59175 3.03215C2.30589 3.12455 2.08149 3.21808 1.92451 3.29088C1.84599 3.32729 1.78422 3.35858 1.73993 3.38203C1.71778 3.39376 1.69999 3.40354 1.68665 3.41103L1.66999 3.42051L1.66417 3.42388L1.6619 3.42522L1.66092 3.42579C1.65961 3.42657 1.49665 3.52314 1.66005 3.42631C1.45747 3.54635 1.33325 3.76436 1.33325 3.99984V12.6665C1.33325 12.906 1.46175 13.1272 1.66987 13.2457C1.87785 13.3642 2.13339 13.3621 2.33939 13.2403C2.33757 13.2413 2.33643 13.242 2.33643 13.242L2.33731 13.2415L2.33835 13.2409L2.33939 13.2403C2.34345 13.238 2.35163 13.2335 2.36391 13.227C2.38847 13.214 2.42924 13.1932 2.48548 13.1671C2.59804 13.1149 2.77207 13.0418 3.00184 12.9675C3.46134 12.819 4.14193 12.6665 4.99992 12.6665C5.85791 12.6665 6.5385 12.819 6.998 12.9675C7.22777 13.0418 7.4018 13.1149 7.51436 13.1671C7.5706 13.1932 7.61137 13.214 7.63593 13.227C7.6482 13.2335 7.65641 13.2381 7.66047 13.2403C7.6623 13.2414 7.66341 13.242 7.66341 13.242M7.66341 13.242L7.66253 13.2415L7.66149 13.2409L7.66047 13.2403C7.86977 13.364 8.13016 13.3641 8.33939 13.2403C8.34345 13.238 8.35163 13.2335 8.36391 13.227C8.38847 13.214 8.42924 13.1932 8.48548 13.1671C8.59804 13.1149 8.77207 13.0418 9.00184 12.9675C9.46134 12.819 10.1419 12.6665 10.9999 12.6665C11.8579 12.6665 12.5385 12.819 12.998 12.9675C13.2278 13.0418 13.4018 13.1149 13.5144 13.1671C13.5706 13.1932 13.6114 13.214 13.6359 13.227C13.6482 13.2335 13.6564 13.2381 13.6605 13.2403L13.6612 13.2407C13.8671 13.3622 14.1222 13.3641 14.33 13.2457C14.5381 13.1272 14.6666 12.906 14.6666 12.6665V3.99984C14.6666 3.76436 14.5424 3.54635 14.3398 3.42631L14.3389 3.42579L14.3379 3.42522L14.3357 3.42388L14.3299 3.42051L14.3132 3.41103C14.2998 3.40354 14.2821 3.39376 14.2599 3.38203C14.2156 3.35858 14.1538 3.32729 14.0753 3.29088C13.9184 3.21808 13.6939 3.12455 13.4081 3.03215C12.8363 2.84735 12.0169 2.6665 10.9999 2.6665C9.98291 2.6665 9.1635 2.84735 8.59175 3.03215C8.3489 3.11065 8.1504 3.18996 7.99992 3.25669M13.3333 4.42217V11.6751C12.7658 11.4989 11.9734 11.3332 10.9999 11.3332C10.0265 11.3332 9.23406 11.4988 8.66659 11.6751V4.42217C8.75983 4.38448 8.87192 4.34285 9.00184 4.30086C9.46134 4.15233 10.1419 3.99984 10.9999 3.99984C11.8579 3.99984 12.5385 4.15233 12.998 4.30086C13.1279 4.34285 13.24 4.38448 13.3333 4.42217ZM13.6605 4.57367C13.6623 4.57469 13.6634 4.57533 13.6634 4.57533L13.6625 4.57482L13.6605 4.57367ZM13.6605 13.2403L13.6627 13.2416L13.6612 13.2407" fill="#62A593"/>
</svg>
