<svg width="40" height="40" viewBox="0 0 40 40" fill="none" xmlns="http://www.w3.org/2000/svg">
<path d="M22.9164 12.5332H17.0844C16.815 12.5332 16.5567 12.6402 16.3662 12.8307C16.1757 13.0211 16.0687 13.2795 16.0687 13.5488V14.623C16.0687 14.6813 16.0802 14.739 16.1025 14.7929C16.1248 14.8467 16.1575 14.8956 16.1987 14.9368C16.2399 14.978 16.2888 15.0107 16.3427 15.033C16.3965 15.0553 16.4542 15.0668 16.5125 15.0668H23.4851C23.5434 15.0668 23.6011 15.0553 23.6549 15.033C23.7088 15.0107 23.7577 14.978 23.7989 14.9368C23.8401 14.8956 23.8728 14.8467 23.8951 14.7929C23.9174 14.739 23.9289 14.6813 23.9289 14.623V13.548C23.9287 13.2794 23.822 13.0217 23.6322 12.8315C23.4425 12.6413 23.1851 12.534 22.9164 12.5332Z" fill="#62A593"/>
<path d="M20 0C8.95469 0 0 8.95469 0 20C0 31.0453 8.95469 40 20 40C31.0453 40 40 31.0453 40 20C40 8.95469 31.0453 0 20 0ZM30.9375 27.0242C30.9369 27.597 30.7091 28.1462 30.3042 28.5513C29.8992 28.9564 29.3501 29.1843 28.7773 29.1852H11.2227C10.6499 29.1843 10.1008 28.9564 9.69583 28.5513C9.29088 28.1462 9.06312 27.597 9.0625 27.0242V16.3383C9.06333 15.7656 9.29118 15.2167 9.69611 14.8117C10.101 14.4068 10.65 14.179 11.2227 14.1781H14.3523V13.5477C14.3523 12.8225 14.6404 12.127 15.1532 11.6142C15.666 11.1014 16.3615 10.8133 17.0867 10.8133H22.9187C23.644 10.8133 24.3395 11.1014 24.8522 11.6142C25.365 12.127 25.6531 12.8225 25.6531 13.5477V14.1781H28.7828C29.3545 14.1804 29.9021 14.4089 30.3058 14.8137C30.7096 15.2184 30.9367 15.7666 30.9375 16.3383V27.0242Z" fill="#62A593"/>
</svg>
