<svg width="17" height="16" viewBox="0 0 17 16" fill="none" xmlns="http://www.w3.org/2000/svg">
<path d="M15.5689 0H1.93111C1.61786 0 1.31744 0.124438 1.09594 0.34594C0.874438 0.567441 0.75 0.867861 0.75 1.18111V14.8189C0.75 15.1321 0.874438 15.4326 1.09594 15.6541C1.31744 15.8756 1.61786 16 1.93111 16H15.5689C15.8821 16 16.1826 15.8756 16.4041 15.6541C16.6256 15.4326 16.75 15.1321 16.75 14.8189V1.18111C16.75 0.867861 16.6256 0.567441 16.4041 0.34594C16.1826 0.124438 15.8821 0 15.5689 0ZM5.51889 13.63H3.11333V5.98889H5.51889V13.63ZM4.31445 4.93C4.04158 4.92846 3.77528 4.84613 3.54916 4.69339C3.32304 4.54065 3.14723 4.32435 3.04392 4.07179C2.94061 3.81923 2.91443 3.54173 2.96869 3.2743C3.02294 3.00688 3.1552 2.76152 3.34877 2.56919C3.54234 2.37686 3.78854 2.24618 4.05631 2.19364C4.32408 2.1411 4.60141 2.16906 4.8533 2.27399C5.10519 2.37892 5.32036 2.55611 5.47164 2.78321C5.62293 3.01031 5.70355 3.27713 5.70333 3.55C5.70591 3.73269 5.67167 3.91403 5.60267 4.0832C5.53368 4.25238 5.43132 4.40593 5.30171 4.53471C5.17211 4.66349 5.0179 4.76486 4.84828 4.83277C4.67867 4.90068 4.49711 4.93375 4.31445 4.93ZM14.3856 13.6367H11.9811V9.46222C11.9811 8.23111 11.4578 7.85111 10.7822 7.85111C10.0689 7.85111 9.36889 8.38889 9.36889 9.49333V13.6367H6.96333V5.99445H9.27667V7.05333H9.30778C9.54 6.58333 10.3533 5.78 11.5944 5.78C12.9367 5.78 14.3867 6.57667 14.3867 8.91L14.3856 13.6367Z" fill="#0A66C2"/>
</svg>
