<svg width="40" height="40" viewBox="0 0 40 40" fill="none" xmlns="http://www.w3.org/2000/svg">
<g clip-path="url(#clip0_602_7360)">
<path fill-rule="evenodd" clip-rule="evenodd" d="M20 0C31.0457 0 40 8.9543 40 20C40 31.0457 31.0457 40 20 40C8.9543 40 0 31.0457 0 20C0 8.9543 8.9543 0 20 0ZM16.1099 28.8789L21.8645 21.1966L18.8169 18.1477L11.1345 23.9023C12.2516 24.2059 13.3423 24.8513 14.2508 25.7605C15.1619 26.6698 15.8062 27.7598 16.1099 28.8789ZM22.6313 23.1675L23.5916 26.602C23.7026 26.9978 24.0644 27.2566 24.4552 27.2566C24.5344 27.2566 24.6162 27.2459 24.6955 27.2235C25.1734 27.0902 25.4508 26.5959 25.3187 26.1194L24.2545 22.3191L28.0547 23.3828C28.5301 23.5166 29.0239 23.2384 29.1586 22.7619C29.2906 22.2855 29.0133 21.7911 28.538 21.6578L25.192 20.7212L23.6772 21.7667L22.6313 23.1675ZM32.3013 12.8201C32.3568 11.7205 31.7283 10.3444 30.6983 9.3143C29.6684 8.28352 28.2898 7.65531 27.1912 7.71187C26.6788 7.73875 26.2853 7.91023 26.0212 8.22141L20.0607 16.8594L23.1532 19.9515L31.7916 13.9907C32.1032 13.7259 32.2749 13.3329 32.3013 12.8201ZM11.9558 32.2498C13.2868 32.4681 14.2956 31.8255 14.462 30.4868C14.6258 29.1907 13.8652 27.907 12.9858 27.0274C11.8924 25.9357 9.05352 24.4829 7.97602 26.4228C7.18109 27.8595 8.2243 29.7484 9.24625 30.7673C10.0438 31.5673 11.0077 32.0942 11.9558 32.2498Z" fill="#62A593"/>
</g>
<defs>
<clipPath id="clip0_602_7360">
<rect width="40" height="40" fill="white"/>
</clipPath>
</defs>
</svg>
