<svg width="24" height="22" viewBox="0 0 24 22" fill="none" xmlns="http://www.w3.org/2000/svg">
<path d="M19.8611 9.06553H6.8175L19.6238 1.46897C19.9728 1.26192 20.088 0.811221 19.881 0.462237C19.6739 0.113205 19.2231 -0.0016854 18.8742 0.205127L3.92836 9.07088C1.74361 9.18089 0 10.9928 0 13.2044V17.7588C0 20.0409 1.85667 21.8977 4.13888 21.8977H19.8611C22.1433 21.8977 24 20.041 24 17.7588V13.2044C24 10.9223 22.1433 9.06553 19.8611 9.06553ZM22.5307 17.7588C22.5307 19.2308 21.3331 20.4283 19.8611 20.4283H4.13888C2.66691 20.4283 1.46939 19.2308 1.46939 17.7588V13.2044C1.46939 11.7329 2.66625 10.5356 4.13761 10.535C4.13827 10.535 4.13892 10.535 4.13958 10.535C4.14056 10.535 4.14155 10.5349 4.14253 10.5349H19.8612C21.3332 10.5349 22.5307 11.7324 22.5307 13.2044V17.7588H22.5307Z" fill="#292F33"/>
</svg>
