<svg width="16" height="16" viewBox="0 0 16 16" fill="none" xmlns="http://www.w3.org/2000/svg">
<path d="M8 2.66683C6.52724 2.66683 5.33333 3.86074 5.33333 5.3335C5.33333 6.80626 6.52724 8.00016 8 8.00016C9.47276 8.00016 10.6667 6.80626 10.6667 5.3335C10.6667 3.86074 9.47276 2.66683 8 2.66683ZM4 5.3335C4 3.12436 5.79086 1.3335 8 1.3335C10.2091 1.3335 12 3.12436 12 5.3335C12 7.54263 10.2091 9.3335 8 9.3335C5.79086 9.3335 4 7.54263 4 5.3335ZM5.33333 12.0002C4.22876 12.0002 3.33333 12.8956 3.33333 14.0002C3.33333 14.3684 3.03486 14.6668 2.66667 14.6668C2.29848 14.6668 2 14.3684 2 14.0002C2 12.1592 3.49239 10.6668 5.33333 10.6668H10.6667C12.5076 10.6668 14 12.1592 14 14.0002C14 14.3684 13.7015 14.6668 13.3333 14.6668C12.9651 14.6668 12.6667 14.3684 12.6667 14.0002C12.6667 12.8956 11.7712 12.0002 10.6667 12.0002H5.33333Z" fill="#62A593"/>
</svg>
