<svg width="40" height="40" viewBox="0 0 40 40" fill="none" xmlns="http://www.w3.org/2000/svg">
<path d="M3.33331 9.99984C3.33331 8.15889 4.8257 6.6665 6.66665 6.6665H33.3333C35.1743 6.6665 36.6666 8.15889 36.6666 9.99984V28.3332C36.6666 30.1741 35.1743 31.6665 33.3333 31.6665H25.6903L21.1785 36.1784C20.5276 36.8292 19.4723 36.8292 18.8215 36.1784L14.3096 31.6665H6.66665C4.8257 31.6665 3.33331 30.1741 3.33331 28.3332V9.99984ZM33.3333 9.99984H6.66665V28.3332H15C15.442 28.3332 15.8659 28.5088 16.1785 28.8213L20 32.6428L23.8215 28.8213C24.134 28.5088 24.558 28.3332 25 28.3332H33.3333V9.99984Z" fill="white"/>
<path d="M22.5 19.1665C22.5 20.5472 21.3807 21.6665 20 21.6665C18.6193 21.6665 17.5 20.5472 17.5 19.1665C17.5 17.7858 18.6193 16.6665 20 16.6665C21.3807 16.6665 22.5 17.7858 22.5 19.1665Z" fill="white"/>
<path d="M29.1666 19.1665C29.1666 20.5472 28.0474 21.6665 26.6666 21.6665C25.2859 21.6665 24.1666 20.5472 24.1666 19.1665C24.1666 17.7858 25.2859 16.6665 26.6666 16.6665C28.0474 16.6665 29.1666 17.7858 29.1666 19.1665Z" fill="white"/>
<path d="M15.8333 19.1665C15.8333 20.5472 14.714 21.6665 13.3333 21.6665C11.9526 21.6665 10.8333 20.5472 10.8333 19.1665C10.8333 17.7858 11.9526 16.6665 13.3333 16.6665C14.714 16.6665 15.8333 17.7858 15.8333 19.1665Z" fill="white"/>
</svg>
