<svg width="26" height="24" viewBox="0 0 26 24" fill="none" xmlns="http://www.w3.org/2000/svg">
<path fill-rule="evenodd" clip-rule="evenodd" d="M25.6713 1.72838C25.7563 1.16894 25.5179 0.608322 25.0564 0.279031C24.5949 -0.04908 23.9871 -0.0903889 23.4855 0.172808C19.4714 2.28074 5.42994 9.65262 1.11729 11.9163C0.584992 12.1949 0.271044 12.7638 0.317074 13.3622C0.363104 13.9605 0.75967 14.4751 1.32855 14.6699C5.46417 16.0874 17.8226 20.3245 20.9007 21.3796C21.3221 21.5248 21.7871 21.4741 22.1683 21.2439C22.5495 21.0126 22.808 20.6243 22.8753 20.1829L25.6713 1.72838ZM2.48874 13.1957L21.1722 19.601L23.8419 1.98568L2.48874 13.1957Z" fill="#727272"/>
<path fill-rule="evenodd" clip-rule="evenodd" d="M10.7859 17.0694L24.9997 2.23714C25.3373 1.88425 25.3255 1.32363 24.9726 0.986073C24.6208 0.64734 24.059 0.659143 23.7215 1.01204L9.50768 15.8443C9.16895 16.1972 9.18075 16.7578 9.53365 17.0966C9.88654 17.4341 10.4472 17.4223 10.7859 17.0694Z" fill="#727272"/>
<path fill-rule="evenodd" clip-rule="evenodd" d="M11.0314 21.9012V16.4567C11.0314 15.9681 10.6349 15.5715 10.1462 15.5715C9.65761 15.5715 9.26105 15.9681 9.26105 16.4567V22.4961C9.26105 23.0886 9.60922 23.6256 10.1486 23.8675C10.6892 24.1107 11.3206 24.0139 11.7632 23.6197C13.3707 22.1916 16.2965 19.5903 16.2965 19.5903C16.6612 19.2657 16.6943 18.7063 16.3697 18.3404C16.0452 17.9757 15.4857 17.9427 15.121 18.2672L11.0314 21.9012Z" fill="#727272"/>
</svg>
