<svg width="14" height="14" viewBox="0 0 14 14" fill="none" xmlns="http://www.w3.org/2000/svg">
<path d="M5.66634 1.66671C4.19358 1.66671 2.99967 2.86061 2.99967 4.33337C2.99967 5.80613 4.19358 7.00004 5.66634 7.00004C7.1391 7.00004 8.33301 5.80613 8.33301 4.33337C8.33301 2.86061 7.1391 1.66671 5.66634 1.66671ZM1.66634 4.33337C1.66634 2.12424 3.4572 0.333374 5.66634 0.333374C7.87548 0.333374 9.66634 2.12424 9.66634 4.33337C9.66634 6.54251 7.87548 8.33337 5.66634 8.33337C3.4572 8.33337 1.66634 6.54251 1.66634 4.33337ZM11.6663 6.33337C12.0345 6.33337 12.333 6.63185 12.333 7.00004V7.66671H12.9997C13.3679 7.66671 13.6663 7.96518 13.6663 8.33337C13.6663 8.70156 13.3679 9.00004 12.9997 9.00004H12.333V9.66671C12.333 10.0349 12.0345 10.3334 11.6663 10.3334C11.2982 10.3334 10.9997 10.0349 10.9997 9.66671V9.00004H10.333C9.96482 9.00004 9.66634 8.70156 9.66634 8.33337C9.66634 7.96518 9.96482 7.66671 10.333 7.66671H10.9997V7.00004C10.9997 6.63185 11.2982 6.33337 11.6663 6.33337ZM3.33301 11C2.49337 11 1.66634 11.8091 1.66634 13C1.66634 13.3682 1.36786 13.6667 0.999674 13.6667C0.631485 13.6667 0.333008 13.3682 0.333008 13C0.333008 11.2455 1.59532 9.66671 3.33301 9.66671H7.99967C9.73736 9.66671 10.9997 11.2455 10.9997 13C10.9997 13.3682 10.7012 13.6667 10.333 13.6667C9.96482 13.6667 9.66634 13.3682 9.66634 13C9.66634 11.8091 8.83931 11 7.99967 11H3.33301Z" fill="#62A593"/>
</svg>
