<svg width="16" height="16" viewBox="0 0 16 16" fill="none" xmlns="http://www.w3.org/2000/svg">
<path d="M2.6665 2.66683C2.6665 1.93045 3.26346 1.3335 3.99984 1.3335H11.9998C12.7362 1.3335 13.3332 1.93045 13.3332 2.66683V14.0002C13.3332 14.2499 13.1936 14.4787 12.9716 14.5929C12.7495 14.7072 12.4822 14.6878 12.279 14.5427L7.99984 11.4861L3.72066 14.5427C3.51745 14.6878 3.25016 14.7072 3.02812 14.5929C2.80607 14.4787 2.6665 14.2499 2.6665 14.0002V2.66683ZM11.9998 2.66683L3.99984 2.66683V12.7047L7.61234 10.1243C7.84414 9.95877 8.15553 9.95877 8.38733 10.1243L11.9998 12.7047V2.66683Z" fill="#62A593"/>
</svg>
