<svg width="40" height="40" viewBox="0 0 40 40" fill="none" xmlns="http://www.w3.org/2000/svg">
<path d="M34 0H6C2.69141 0 0 2.69141 0 6V34C0 37.3086 2.69141 40 6 40H34C37.3086 40 40 37.3086 40 34V6C40 2.69141 37.3086 0 34 0Z" fill="url(#paint0_linear_602_9129)"/>
<path d="M30.4609 23.5332C29.7949 23.8691 28.9912 24.0469 28.1348 24.0469C26.3564 24.0469 24.626 23.3145 23.6152 22.1348L19.4199 17.2598C18.0186 15.623 16.043 14.6855 14 14.6855C11.957 14.6855 9.98145 15.623 8.58203 17.2578L0 27.2598V34C0 37.3086 2.69141 40 6 40H34C37.3086 40 40 37.3086 40 34V18.7637L30.4609 23.5332Z" fill="url(#paint1_linear_602_9129)"/>
<path d="M28 18C31.3137 18 34 15.3137 34 12C34 8.68629 31.3137 6 28 6C24.6863 6 22 8.68629 22 12C22 15.3137 24.6863 18 28 18Z" fill="url(#paint2_linear_602_9129)"/>
<defs>
<linearGradient id="paint0_linear_602_9129" x1="0" y1="20" x2="40" y2="20" gradientUnits="userSpaceOnUse">
<stop stop-color="#BAEDDF"/>
<stop offset="1" stop-color="#9AD0C2"/>
</linearGradient>
<linearGradient id="paint1_linear_602_9129" x1="0" y1="27.344" x2="40" y2="27.344" gradientUnits="userSpaceOnUse">
<stop stop-color="#52A568"/>
<stop offset="1" stop-color="#62A593"/>
</linearGradient>
<linearGradient id="paint2_linear_602_9129" x1="22" y1="12" x2="34" y2="12" gradientUnits="userSpaceOnUse">
<stop stop-color="#62A593"/>
<stop offset="1" stop-color="#62A593"/>
</linearGradient>
</defs>
</svg>
