<svg width="24" height="18" viewBox="0 0 24 18" fill="none" xmlns="http://www.w3.org/2000/svg">
<path d="M20.485 0.205945C20.2104 -0.0686484 19.7652 -0.0686484 19.4906 0.205945C19.216 0.480492 19.216 0.925711 19.4906 1.2003C23.6211 5.33088 23.6211 12.0517 19.4907 16.1822C19.2161 16.4567 19.2161 16.9019 19.4907 17.1765C19.628 17.3138 19.808 17.3825 19.9879 17.3825C20.1678 17.3825 20.3478 17.3138 20.485 17.1765C22.7516 14.9101 23.9998 11.8966 23.9998 8.69131C23.9998 5.48599 22.7515 2.47249 20.485 0.205945Z" fill="#292F33"/>
<path d="M1.40625 8.69122C1.40625 5.86157 2.50823 3.20122 4.50914 1.20027C4.78373 0.925723 4.78373 0.480504 4.50914 0.20591C4.23459 -0.0686367 3.78938 -0.0686367 3.51478 0.20591C1.24823 2.47246 0 5.48596 0 8.69122C0 11.8965 1.24823 14.91 3.51478 17.1765C3.65208 17.3138 3.83203 17.3825 4.01194 17.3825C4.19184 17.3825 4.37184 17.3138 4.50909 17.1765C4.78369 16.902 4.78369 16.4568 4.50909 16.1822C2.50819 14.1812 1.40625 11.5209 1.40625 8.69122Z" fill="#292F33"/>
<path d="M17.8224 2.86867C17.5479 2.59402 17.1027 2.59412 16.828 2.86867C16.5534 3.14321 16.5534 3.58838 16.828 3.86302C19.4903 6.52538 19.4903 10.8572 16.828 13.5195C16.5534 13.7941 16.5534 14.2393 16.828 14.5139C16.9653 14.6512 17.1453 14.7198 17.3252 14.7198C17.5051 14.7198 17.6851 14.6512 17.8223 14.5139C21.033 11.3034 21.033 6.07932 17.8224 2.86867Z" fill="#292F33"/>
<path d="M5.17192 8.69134C5.17192 6.86748 5.88222 5.15274 7.17194 3.86302C7.44653 3.58848 7.44653 3.14331 7.17194 2.86867C6.89739 2.59402 6.45217 2.59412 6.17758 2.86867C4.62222 4.42398 3.76562 6.49182 3.76562 8.69134C3.76562 10.8908 4.62217 12.9586 6.17758 14.5139C6.31487 14.6512 6.49478 14.7198 6.67473 14.7198C6.85469 14.7198 7.03464 14.6512 7.17194 14.5139C7.44653 14.2393 7.44648 13.7941 7.17189 13.5195C5.88222 12.2298 5.17192 10.5151 5.17192 8.69134Z" fill="#292F33"/>
<path d="M12 4.22253C9.53595 4.22253 7.53125 6.22724 7.53125 8.69127C7.53125 11.1553 9.53595 13.16 12 13.16C14.4641 13.16 16.4687 11.1553 16.4687 8.69127C16.4687 6.22724 14.4641 4.22253 12 4.22253ZM12 11.7538C10.3114 11.7538 8.9375 10.3799 8.9375 8.69127C8.9375 7.00264 10.3114 5.62878 12 5.62878C13.6887 5.62878 15.0625 7.00264 15.0625 8.69127C15.0625 10.3799 13.6887 11.7538 12 11.7538Z" fill="#292F33"/>
</svg>
