<svg width="23" height="17" viewBox="0 0 23 17" fill="none" xmlns="http://www.w3.org/2000/svg">
<path d="M20.25 0H2.25C1.65326 0 1.08097 0.237053 0.65901 0.65901C0.237053 1.08097 0 1.65326 0 2.25V12C0 12.5967 0.237053 13.169 0.65901 13.591C1.08097 14.0129 1.65326 14.25 2.25 14.25H4.185L3.2175 15.2175C3.1472 15.2872 3.09141 15.3702 3.05333 15.4616C3.01526 15.553 2.99565 15.651 2.99565 15.75C2.99565 15.849 3.01526 15.947 3.05333 16.0384C3.09141 16.1298 3.1472 16.2128 3.2175 16.2825C3.28758 16.352 3.37069 16.407 3.46207 16.4443C3.55345 16.4817 3.65129 16.5006 3.75 16.5C3.84871 16.5006 3.94655 16.4817 4.03793 16.4443C4.12931 16.407 4.21242 16.352 4.2825 16.2825L6.3225 14.25H16.1775L18.2175 16.2825C18.2872 16.3528 18.3702 16.4086 18.4616 16.4467C18.553 16.4847 18.651 16.5043 18.75 16.5043C18.849 16.5043 18.947 16.4847 19.0384 16.4467C19.1298 16.4086 19.2128 16.3528 19.2825 16.2825C19.3528 16.2128 19.4086 16.1298 19.4467 16.0384C19.4847 15.947 19.5043 15.849 19.5043 15.75C19.5043 15.651 19.4847 15.553 19.4467 15.4616C19.4086 15.3702 19.3528 15.2872 19.2825 15.2175L18.315 14.25H20.25C20.8467 14.25 21.419 14.0129 21.841 13.591C22.2629 13.169 22.5 12.5967 22.5 12V2.25C22.5 1.65326 22.2629 1.08097 21.841 0.65901C21.419 0.237053 20.8467 0 20.25 0ZM21 12C21 12.1989 20.921 12.3897 20.7803 12.5303C20.6397 12.671 20.4489 12.75 20.25 12.75H2.25C2.05109 12.75 1.86032 12.671 1.71967 12.5303C1.57902 12.3897 1.5 12.1989 1.5 12V2.25C1.5 2.05109 1.57902 1.86032 1.71967 1.71967C1.86032 1.57902 2.05109 1.5 2.25 1.5H20.25C20.4489 1.5 20.6397 1.57902 20.7803 1.71967C20.921 1.86032 21 2.05109 21 2.25V12Z" fill="#292F33"/>
</svg>
