<svg width="30" height="30" viewBox="0 0 30 30" fill="none" xmlns="http://www.w3.org/2000/svg">
<path d="M24.9702 5.02978C22.3072 2.3668 18.766 0.9 15 0.9C11.234 0.9 7.69276 2.3668 5.02978 5.02978C2.3668 7.69276 0.9 11.234 0.9 15C0.9 18.766 2.3668 22.3072 5.02978 24.9702C7.69276 27.6332 11.234 29.1 15 29.1C18.766 29.1 22.3072 27.6332 24.9702 24.9702C27.6332 22.3072 29.1 18.766 29.1 15C29.1 11.234 27.6332 7.69276 24.9702 5.02978ZM7.18183 24.4351C7.66261 20.5338 11.0273 17.5285 15 17.5285C17.1041 17.5285 19.0823 18.3481 20.5706 19.8362C21.8151 21.0809 22.6046 22.7021 22.8184 24.4349C20.6947 26.1978 17.9691 27.2594 15 27.2594C12.0309 27.2594 9.30553 26.198 7.18183 24.4351ZM15 15.6387C12.7107 15.6387 10.8478 13.7758 10.8478 11.4865C10.8478 9.19705 12.7107 7.33437 15 7.33437C17.2893 7.33437 19.1522 9.19705 19.1522 11.4865C19.1522 13.7758 17.2893 15.6387 15 15.6387ZM27.2594 15C27.2594 17.9975 26.178 20.7469 24.3849 22.8791C23.9457 21.2482 23.0838 19.7466 21.872 18.5348C20.8997 17.5625 19.7572 16.8218 18.5117 16.3398C20.0138 15.25 20.9928 13.4805 20.9928 11.4865C20.9928 8.18211 18.3044 5.49375 15 5.49375C11.6956 5.49375 9.00721 8.18211 9.00721 11.4865C9.00721 13.4815 9.98705 15.2517 11.4903 16.3413C10.3491 16.7829 9.29254 17.4408 8.37725 18.2935C7.03106 19.5472 6.08188 21.1341 5.61391 22.8777C3.82148 20.7455 2.74063 17.9967 2.74063 15C2.74063 8.24023 8.24023 2.74063 15 2.74063C21.7598 2.74063 27.2594 8.24023 27.2594 15Z" fill="#727272" stroke="#727272" stroke-width="0.2"/>
</svg>
