<svg width="16" height="16" viewBox="0 0 16 16" fill="none" xmlns="http://www.w3.org/2000/svg">
<path d="M6.00002 7.66683C6.36821 7.66683 6.66669 7.36835 6.66669 7.00016C6.66669 6.63197 6.36821 6.3335 6.00002 6.3335C5.63183 6.3335 5.33335 6.63197 5.33335 7.00016C5.33335 7.36835 5.63183 7.66683 6.00002 7.66683Z" fill="#62A593"/>
<path d="M7.33335 7.00016C7.33335 6.63197 7.63183 6.3335 8.00002 6.3335H10C10.3682 6.3335 10.6667 6.63197 10.6667 7.00016C10.6667 7.36835 10.3682 7.66683 10 7.66683H8.00002C7.63183 7.66683 7.33335 7.36835 7.33335 7.00016Z" fill="#62A593"/>
<path d="M8.00002 8.3335C7.63183 8.3335 7.33335 8.63197 7.33335 9.00016C7.33335 9.36835 7.63183 9.66683 8.00002 9.66683H10C10.3682 9.66683 10.6667 9.36835 10.6667 9.00016C10.6667 8.63197 10.3682 8.3335 10 8.3335H8.00002Z" fill="#62A593"/>
<path d="M8.00002 10.3335C7.63183 10.3335 7.33335 10.632 7.33335 11.0002C7.33335 11.3684 7.63183 11.6668 8.00002 11.6668H10C10.3682 11.6668 10.6667 11.3684 10.6667 11.0002C10.6667 10.632 10.3682 10.3335 10 10.3335H8.00002Z" fill="#62A593"/>
<path d="M6.66669 9.00016C6.66669 9.36835 6.36821 9.66683 6.00002 9.66683C5.63183 9.66683 5.33335 9.36835 5.33335 9.00016C5.33335 8.63197 5.63183 8.3335 6.00002 8.3335C6.36821 8.3335 6.66669 8.63197 6.66669 9.00016Z" fill="#62A593"/>
<path d="M6.00002 11.6668C6.36821 11.6668 6.66669 11.3684 6.66669 11.0002C6.66669 10.632 6.36821 10.3335 6.00002 10.3335C5.63183 10.3335 5.33335 10.632 5.33335 11.0002C5.33335 11.3684 5.63183 11.6668 6.00002 11.6668Z" fill="#62A593"/>
<path d="M6.00002 1.3335C5.63183 1.3335 5.33335 1.63197 5.33335 2.00016H4.00002C3.26364 2.00016 2.66669 2.59712 2.66669 3.3335V13.3335C2.66669 14.0699 3.26364 14.6668 4.00002 14.6668H12C12.7364 14.6668 13.3334 14.0699 13.3334 13.3335V3.3335C13.3334 2.59712 12.7364 2.00016 12 2.00016H10.6667C10.6667 1.63197 10.3682 1.3335 10 1.3335H6.00002ZM10.6667 3.3335H12V13.3335H4.00002V3.3335H5.33335V4.00016C5.33335 4.36835 5.63183 4.66683 6.00002 4.66683H10C10.3682 4.66683 10.6667 4.36835 10.6667 4.00016V3.3335ZM6.66669 3.3335V2.66683H9.33335V3.3335H6.66669Z" fill="#62A593"/>
</svg>
